<svg width="137" height="128" viewBox="36 37 137 128" fill="none" xmlns="http://www.w3.org/2000/svg">
<mask id="path-2-outside-1_61_675" maskUnits="userSpaceOnUse" x="36" y="37" width="137" height="128" fill="black">
<rect fill="white" x="36" y="37" width="137" height="128"/>
<path d="M45.4815 46.9091H73.9261L103.969 120.205H105.247L135.29 46.9091H163.734V156H141.362V84.995H140.457L112.225 155.467H96.9908L68.7592 84.7287H67.8537V156H45.4815V46.9091Z"/>
</mask>
<path d="M45.4815 46.9091V37.9091H36.4815V46.9091H45.4815ZM73.9261 46.9091L82.2537 43.4957L79.9639 37.9091H73.9261V46.9091ZM103.969 120.205L95.6411 123.618L97.931 129.205H103.969V120.205ZM105.247 120.205V129.205H111.285L113.575 123.618L105.247 120.205ZM135.29 46.9091V37.9091H129.252L126.962 43.4957L135.29 46.9091ZM163.734 46.9091H172.734V37.9091H163.734V46.9091ZM163.734 156V165H172.734V156H163.734ZM141.362 156H132.362V165H141.362V156ZM141.362 84.995H150.362V75.995H141.362V84.995ZM140.457 84.995V75.995H134.367L132.102 81.6482L140.457 84.995ZM112.225 155.467V164.467H118.315L120.58 158.814L112.225 155.467ZM96.9908 155.467L88.6319 158.803L90.8924 164.467H96.9908V155.467ZM68.7592 84.7287L77.1181 81.3927L74.8576 75.7287H68.7592V84.7287ZM67.8537 84.7287V75.7287H58.8537V84.7287H67.8537ZM67.8537 156V165H76.8537V156H67.8537ZM45.4815 156H36.4815V165H45.4815V156ZM45.4815 46.9091V55.9091H73.9261V46.9091V37.9091H45.4815V46.9091ZM73.9261 46.9091L65.5985 50.3224L95.6411 123.618L103.969 120.205L112.296 116.791L82.2537 43.4957L73.9261 46.9091ZM103.969 120.205V129.205H105.247V120.205V111.205H103.969V120.205ZM105.247 120.205L113.575 123.618L143.617 50.3224L135.29 46.9091L126.962 43.4957L96.9196 116.791L105.247 120.205ZM135.29 46.9091V55.9091H163.734V46.9091V37.9091H135.29V46.9091ZM163.734 46.9091H154.734V156H163.734H172.734V46.9091H163.734ZM163.734 156V147H141.362V156V165H163.734V156ZM141.362 156H150.362V84.995H141.362H132.362V156H141.362ZM141.362 84.995V75.995H140.457V84.995V93.995H141.362V84.995ZM140.457 84.995L132.102 81.6482L103.871 152.12L112.225 155.467L120.58 158.814L148.811 88.3419L140.457 84.995ZM112.225 155.467V146.467H96.9908V155.467V164.467H112.225V155.467ZM96.9908 155.467L105.35 152.131L77.1181 81.3927L68.7592 84.7287L60.4003 88.0647L88.6319 158.803L96.9908 155.467ZM68.7592 84.7287V75.7287H67.8537V84.7287V93.7287H68.7592V84.7287ZM67.8537 84.7287H58.8537V156H67.8537H76.8537V84.7287H67.8537ZM67.8537 156V147H45.4815V156V165H67.8537V156ZM45.4815 156H54.4815V46.9091H45.4815H36.4815V156H45.4815Z" fill="url(#paint0_linear_61_675)" mask="url(#path-2-outside-1_61_675)"/>
<defs>
<linearGradient id="paint0_linear_61_675" x1="47" y1="47.5" x2="162" y2="156" gradientUnits="userSpaceOnUse">
<stop stop-color="#A855F7"/>
<stop offset="0.5" stop-color="#3B82F6"/>
<stop offset="1" stop-color="#EC4899"/>
</linearGradient>
</defs>
</svg>
